STARTFONT 2.1
FONT -FontForge-ITC Benguiat Gothic Std-Medium-R-Normal--12-120-75-75-P-62-ISO8859-1
SIZE 12 75 75
FONTBOUNDINGBOX 14 15 -2 -3
COMMENT "Generated by fontforge, http://fontforge.sourceforge.net"
COMMENT "Copyright 1990, 1995 , 2002Adobe Systems Incorporated. All Rights Reserved. ITC Benguiat Gothic is a registered trademark of International Typeface Corporation."
STARTPROPERTIES 40
FOUNDRY "FontForge"
FAMILY_NAME "ITC Benguiat Gothic Std"
WEIGHT_NAME "Medium"
SLANT "R"
SETWIDTH_NAME "Normal"
ADD_STYLE_NAME ""
PIXEL_SIZE 12
POINT_SIZE 120
RESOLUTION_X 75
RESOLUTION_Y 75
SPACING "P"
AVERAGE_WIDTH 62
CHARSET_REGISTRY "ISO8859"
CHARSET_ENCODING "1"
FONTNAME_REGISTRY ""
CHARSET_COLLECTIONS "ISOLatin1Encoding"
FONT_NAME "BenguiatGothicStd-Medium"
FACE_NAME "ITC Benguiat Gothic Std Medium"
COPYRIGHT "Copyright 1990, 1995 , 2002Adobe Systems Incorporated. All Rights Reserved. ITC Benguiat Gothic is a registered trademark of International Typeface Corporation."
FONT_VERSION "001.001"
FONT_ASCENT 8
FONT_DESCENT 4
UNDERLINE_POSITION -1
UNDERLINE_THICKNESS 1
X_HEIGHT 6
CAP_HEIGHT 8
RAW_ASCENT 691
RAW_DESCENT 309
NORM_SPACE 4
RELATIVE_WEIGHT 50
RELATIVE_SETWIDTH 50
SUPERSCRIPT_X 0
SUPERSCRIPT_Y 4
SUPERSCRIPT_SIZE 7
SUBSCRIPT_X 0
SUBSCRIPT_Y 0
SUBSCRIPT_SIZE 7
FIGURE_WIDTH 7
AVG_LOWERCASE_WIDTH 61
AVG_UPPERCASE_WIDTH 72
ENDPROPERTIES
CHARS 253
STARTCHAR space
ENCODING 32
SWIDTH 305 0
DWIDTH 4 0
BBX 1 1 0 0
BITMAP
00
ENDCHAR
STARTCHAR exclam
ENCODING 33
SWIDTH 278 0
DWIDTH 3 0
BBX 1 9 1 0
BITMAP
80
80
80
80
80
80
80
00
80
ENDCHAR
STARTCHAR quotedbl
ENCODING 34
SWIDTH 333 0
DWIDTH 4 0
BBX 2 3 1 6
BITMAP
C0
C0
C0
ENDCHAR
STARTCHAR numbersign
ENCODING 35
SWIDTH 611 0
DWIDTH 7 0
BBX 6 9 1 0
BITMAP
28
48
48
FC
50
F8
50
50
90
ENDCHAR
STARTCHAR dollar
ENCODING 36
SWIDTH 611 0
DWIDTH 7 0
BBX 5 9 1 0
BITMAP
20
F0
80
F0
28
28
28
F0
20
ENDCHAR
STARTCHAR percent
ENCODING 37
SWIDTH 833 0
DWIDTH 10 0
BBX 8 9 1 0
BITMAP
E4
A4
A8
E8
10
17
19
29
27
ENDCHAR
STARTCHAR ampersand
ENCODING 38
SWIDTH 778 0
DWIDTH 9 0
BBX 8 9 1 0
BITMAP
70
48
4A
72
B2
9A
8C
8E
79
ENDCHAR
STARTCHAR quotesingle
ENCODING 39
SWIDTH 222 0
DWIDTH 3 0
BBX 1 3 1 6
BITMAP
80
80
80
ENDCHAR
STARTCHAR parenleft
ENCODING 40
SWIDTH 389 0
DWIDTH 5 0
BBX 3 11 1 -3
BITMAP
20
40
C0
80
80
80
80
80
C0
40
20
ENDCHAR
STARTCHAR parenright
ENCODING 41
SWIDTH 389 0
DWIDTH 5 0
BBX 3 11 1 -3
BITMAP
80
40
40
60
20
20
20
60
40
40
80
ENDCHAR
STARTCHAR asterisk
ENCODING 42
SWIDTH 333 0
DWIDTH 4 0
BBX 3 3 0 6
BITMAP
40
E0
E0
ENDCHAR
STARTCHAR plus
ENCODING 43
SWIDTH 600 0
DWIDTH 7 0
BBX 6 7 1 0
BITMAP
20
20
20
FC
20
20
20
ENDCHAR
STARTCHAR comma
ENCODING 44
SWIDTH 305 0
DWIDTH 4 0
BBX 1 3 1 -1
BITMAP
80
80
80
ENDCHAR
STARTCHAR hyphen
ENCODING 45
SWIDTH 333 0
DWIDTH 4 0
BBX 2 1 1 3
BITMAP
C0
ENDCHAR
STARTCHAR period
ENCODING 46
SWIDTH 305 0
DWIDTH 4 0
BBX 1 1 1 0
BITMAP
80
ENDCHAR
STARTCHAR slash
ENCODING 47
SWIDTH 278 0
DWIDTH 3 0
BBX 4 9 0 0
BITMAP
10
20
20
20
40
40
80
80
80
ENDCHAR
STARTCHAR zero
ENCODING 48
SWIDTH 611 0
DWIDTH 7 0
BBX 7 9 0 0
BITMAP
38
64
46
42
C2
42
46
64
38
ENDCHAR
STARTCHAR one
ENCODING 49
SWIDTH 611 0
DWIDTH 7 0
BBX 4 9 2 0
BITMAP
C0
C0
40
40
40
40
40
40
F0
ENDCHAR
STARTCHAR two
ENCODING 50
SWIDTH 611 0
DWIDTH 7 0
BBX 5 9 1 0
BITMAP
F0
08
08
18
30
60
80
80
F8
ENDCHAR
STARTCHAR three
ENCODING 51
SWIDTH 611 0
DWIDTH 7 0
BBX 5 9 1 0
BITMAP
F8
30
60
70
08
08
08
08
F0
ENDCHAR
STARTCHAR four
ENCODING 52
SWIDTH 611 0
DWIDTH 7 0
BBX 6 9 1 0
BITMAP
10
38
58
98
98
98
FC
18
18
ENDCHAR
STARTCHAR five
ENCODING 53
SWIDTH 611 0
DWIDTH 7 0
BBX 6 9 1 0
BITMAP
F8
80
F0
18
0C
04
04
08
F0
ENDCHAR
STARTCHAR six
ENCODING 54
SWIDTH 611 0
DWIDTH 7 0
BBX 7 9 0 0
BITMAP
3E
60
40
7C
E6
42
42
66
3C
ENDCHAR
STARTCHAR seven
ENCODING 55
SWIDTH 611 0
DWIDTH 7 0
BBX 5 9 1 0
BITMAP
F8
08
08
10
30
20
60
40
40
ENDCHAR
STARTCHAR eight
ENCODING 56
SWIDTH 611 0
DWIDTH 7 0
BBX 6 9 1 0
BITMAP
70
88
88
88
70
8C
84
8C
78
ENDCHAR
STARTCHAR nine
ENCODING 57
SWIDTH 611 0
DWIDTH 7 0
BBX 7 9 0 0
BITMAP
38
44
C6
C6
46
3A
04
04
78
ENDCHAR
STARTCHAR colon
ENCODING 58
SWIDTH 305 0
DWIDTH 4 0
BBX 1 5 1 0
BITMAP
80
00
00
00
80
ENDCHAR
STARTCHAR semicolon
ENCODING 59
SWIDTH 305 0
DWIDTH 4 0
BBX 1 6 1 -1
BITMAP
80
00
00
80
80
80
ENDCHAR
STARTCHAR less
ENCODING 60
SWIDTH 600 0
DWIDTH 7 0
BBX 6 7 1 0
BITMAP
04
18
60
80
60
18
04
ENDCHAR
STARTCHAR equal
ENCODING 61
SWIDTH 600 0
DWIDTH 7 0
BBX 6 4 1 1
BITMAP
FC
00
00
FC
ENDCHAR
STARTCHAR greater
ENCODING 62
SWIDTH 600 0
DWIDTH 7 0
BBX 6 7 1 0
BITMAP
80
E0
38
0C
38
E0
80
ENDCHAR
STARTCHAR question
ENCODING 63
SWIDTH 500 0
DWIDTH 6 0
BBX 5 9 0 0
BITMAP
F8
08
08
08
30
20
20
00
20
ENDCHAR
STARTCHAR at
ENCODING 64
SWIDTH 800 0
DWIDTH 10 0
BBX 8 9 1 0
BITMAP
3C
42
9D
A5
C5
CA
BE
42
3C
ENDCHAR
STARTCHAR A
ENCODING 65
SWIDTH 667 0
DWIDTH 8 0
BBX 8 9 0 0
BITMAP
18
18
24
24
7A
46
42
C2
83
ENDCHAR
STARTCHAR B
ENCODING 66
SWIDTH 611 0
DWIDTH 7 0
BBX 6 9 1 0
BITMAP
F8
88
E8
98
8C
84
84
8C
F8
ENDCHAR
STARTCHAR C
ENCODING 67
SWIDTH 611 0
DWIDTH 7 0
BBX 7 9 0 0
BITMAP
3E
40
40
C0
40
40
60
30
1E
ENDCHAR
STARTCHAR D
ENCODING 68
SWIDTH 667 0
DWIDTH 8 0
BBX 6 9 1 0
BITMAP
E0
98
8C
84
84
84
84
84
F8
ENDCHAR
STARTCHAR E
ENCODING 69
SWIDTH 556 0
DWIDTH 7 0
BBX 5 9 1 0
BITMAP
F8
80
F8
80
80
80
80
80
F8
ENDCHAR
STARTCHAR F
ENCODING 70
SWIDTH 500 0
DWIDTH 6 0
BBX 5 9 1 0
BITMAP
F8
80
F8
80
80
80
80
80
80
ENDCHAR
STARTCHAR G
ENCODING 71
SWIDTH 667 0
DWIDTH 8 0
BBX 7 9 0 0
BITMAP
3E
40
CE
C2
C2
42
62
32
0E
ENDCHAR
STARTCHAR H
ENCODING 72
SWIDTH 611 0
DWIDTH 7 0
BBX 5 9 1 0
BITMAP
88
88
F8
88
88
88
88
88
88
ENDCHAR
STARTCHAR I
ENCODING 73
SWIDTH 222 0
DWIDTH 3 0
BBX 1 9 1 0
BITMAP
80
80
80
80
80
80
80
80
80
ENDCHAR
STARTCHAR J
ENCODING 74
SWIDTH 444 0
DWIDTH 5 0
BBX 4 9 0 0
BITMAP
10
10
10
10
10
10
10
10
E0
ENDCHAR
STARTCHAR K
ENCODING 75
SWIDTH 611 0
DWIDTH 7 0
BBX 6 9 1 0
BITMAP
88
88
F0
90
88
88
84
84
84
ENDCHAR
STARTCHAR L
ENCODING 76
SWIDTH 444 0
DWIDTH 5 0
BBX 4 9 1 0
BITMAP
80
80
80
80
80
80
80
80
F0
ENDCHAR
STARTCHAR M
ENCODING 77
SWIDTH 722 0
DWIDTH 9 0
BBX 7 9 1 0
BITMAP
44
CC
EC
BA
92
82
82
82
82
ENDCHAR
STARTCHAR N
ENCODING 78
SWIDTH 611 0
DWIDTH 7 0
BBX 5 9 1 0
BITMAP
88
C8
A8
98
88
88
88
88
88
ENDCHAR
STARTCHAR O
ENCODING 79
SWIDTH 722 0
DWIDTH 9 0
BBX 8 9 0 0
BITMAP
1C
62
41
41
C1
41
41
62
3C
ENDCHAR
STARTCHAR P
ENCODING 80
SWIDTH 556 0
DWIDTH 7 0
BBX 6 9 1 0
BITMAP
F8
8C
88
B0
C0
80
80
80
80
ENDCHAR
STARTCHAR Q
ENCODING 81
SWIDTH 722 0
DWIDTH 9 0
BBX 8 11 0 -2
BITMAP
1C
62
43
41
C1
41
79
6E
3C
06
03
ENDCHAR
STARTCHAR R
ENCODING 82
SWIDTH 667 0
DWIDTH 8 0
BBX 7 9 1 0
BITMAP
FC
84
EC
98
88
84
84
86
82
ENDCHAR
STARTCHAR S
ENCODING 83
SWIDTH 611 0
DWIDTH 7 0
BBX 7 9 0 0
BITMAP
7C
C0
40
7C
06
02
02
04
FC
ENDCHAR
STARTCHAR T
ENCODING 84
SWIDTH 500 0
DWIDTH 6 0
BBX 6 9 0 0
BITMAP
FC
30
30
30
30
30
30
30
30
ENDCHAR
STARTCHAR U
ENCODING 85
SWIDTH 611 0
DWIDTH 7 0
BBX 7 9 0 0
BITMAP
44
44
44
42
42
82
C2
46
3C
ENDCHAR
STARTCHAR V
ENCODING 86
SWIDTH 611 0
DWIDTH 7 0
BBX 7 9 0 0
BITMAP
82
82
42
44
44
64
28
28
10
ENDCHAR
STARTCHAR W
ENCODING 87
SWIDTH 833 0
DWIDTH 10 0
BBX 10 9 0 0
BITMAP
8C80
CCC0
4C80
4C80
4C80
4C80
5280
3300
3300
ENDCHAR
STARTCHAR X
ENCODING 88
SWIDTH 611 0
DWIDTH 7 0
BBX 7 9 0 0
BITMAP
46
64
28
18
2C
44
46
C2
82
ENDCHAR
STARTCHAR Y
ENCODING 89
SWIDTH 556 0
DWIDTH 7 0
BBX 6 9 0 0
BITMAP
84
44
4C
28
30
10
10
10
10
ENDCHAR
STARTCHAR Z
ENCODING 90
SWIDTH 500 0
DWIDTH 6 0
BBX 6 9 0 0
BITMAP
78
08
08
18
30
60
40
C0
FC
ENDCHAR
STARTCHAR bracketleft
ENCODING 91
SWIDTH 389 0
DWIDTH 5 0
BBX 3 12 1 -3
BITMAP
E0
80
80
80
80
80
80
80
80
80
80
E0
ENDCHAR
STARTCHAR backslash
ENCODING 92
SWIDTH 278 0
DWIDTH 3 0
BBX 4 9 0 0
BITMAP
80
80
80
40
40
20
20
20
10
ENDCHAR
STARTCHAR bracketright
ENCODING 93
SWIDTH 389 0
DWIDTH 5 0
BBX 3 12 1 -3
BITMAP
E0
20
20
20
20
20
20
20
20
20
20
E0
ENDCHAR
STARTCHAR asciicircum
ENCODING 94
SWIDTH 600 0
DWIDTH 7 0
BBX 5 6 1 3
BITMAP
20
50
50
50
88
88
ENDCHAR
STARTCHAR underscore
ENCODING 95
SWIDTH 500 0
DWIDTH 6 0
BBX 6 1 0 -2
BITMAP
FC
ENDCHAR
STARTCHAR grave
ENCODING 96
SWIDTH 222 0
DWIDTH 3 0
BBX 3 2 0 7
BITMAP
80
60
ENDCHAR
STARTCHAR a
ENCODING 97
SWIDTH 500 0
DWIDTH 6 0
BBX 5 7 0 0
BITMAP
78
08
38
48
88
88
78
ENDCHAR
STARTCHAR b
ENCODING 98
SWIDTH 556 0
DWIDTH 7 0
BBX 5 9 1 0
BITMAP
80
80
E0
90
88
88
88
88
F0
ENDCHAR
STARTCHAR c
ENCODING 99
SWIDTH 500 0
DWIDTH 6 0
BBX 6 7 0 0
BITMAP
7C
40
C0
C0
40
60
3C
ENDCHAR
STARTCHAR d
ENCODING 100
SWIDTH 556 0
DWIDTH 7 0
BBX 6 9 0 0
BITMAP
04
04
3C
64
44
C4
C4
44
7C
ENDCHAR
STARTCHAR e
ENCODING 101
SWIDTH 556 0
DWIDTH 7 0
BBX 6 7 0 0
BITMAP
38
44
44
FC
40
40
3C
ENDCHAR
STARTCHAR f
ENCODING 102
SWIDTH 333 0
DWIDTH 4 0
BBX 4 9 0 0
BITMAP
30
40
F0
40
40
40
40
40
40
ENDCHAR
STARTCHAR g
ENCODING 103
SWIDTH 556 0
DWIDTH 7 0
BBX 7 10 0 -3
BITMAP
3C
64
44
C4
C4
44
3C
02
04
78
ENDCHAR
STARTCHAR h
ENCODING 104
SWIDTH 556 0
DWIDTH 7 0
BBX 5 9 1 0
BITMAP
80
80
F0
88
88
88
88
88
88
ENDCHAR
STARTCHAR i
ENCODING 105
SWIDTH 222 0
DWIDTH 3 0
BBX 1 9 1 0
BITMAP
80
00
80
80
80
80
80
80
80
ENDCHAR
STARTCHAR j
ENCODING 106
SWIDTH 222 0
DWIDTH 3 0
BBX 4 12 -2 -3
BITMAP
10
00
10
10
10
10
10
10
10
10
30
E0
ENDCHAR
STARTCHAR k
ENCODING 107
SWIDTH 500 0
DWIDTH 6 0
BBX 5 9 1 0
BITMAP
80
80
90
90
E0
B0
90
88
88
ENDCHAR
STARTCHAR l
ENCODING 108
SWIDTH 222 0
DWIDTH 3 0
BBX 1 9 1 0
BITMAP
80
80
80
80
80
80
80
80
80
ENDCHAR
STARTCHAR m
ENCODING 109
SWIDTH 889 0
DWIDTH 11 0
BBX 9 7 1 0
BITMAP
F700
9880
8880
8880
8880
8880
8880
ENDCHAR
STARTCHAR n
ENCODING 110
SWIDTH 556 0
DWIDTH 7 0
BBX 5 7 1 0
BITMAP
F0
88
88
88
88
88
88
ENDCHAR
STARTCHAR o
ENCODING 111
SWIDTH 556 0
DWIDTH 7 0
BBX 6 7 0 0
BITMAP
38
4C
44
84
44
44
38
ENDCHAR
STARTCHAR p
ENCODING 112
SWIDTH 556 0
DWIDTH 7 0
BBX 5 10 1 -3
BITMAP
E0
90
88
88
88
88
F0
80
80
80
ENDCHAR
STARTCHAR q
ENCODING 113
SWIDTH 556 0
DWIDTH 7 0
BBX 6 10 0 -3
BITMAP
3C
64
44
C4
C4
44
3C
04
04
04
ENDCHAR
STARTCHAR r
ENCODING 114
SWIDTH 333 0
DWIDTH 4 0
BBX 3 7 1 0
BITMAP
E0
80
80
80
80
80
80
ENDCHAR
STARTCHAR s
ENCODING 115
SWIDTH 500 0
DWIDTH 6 0
BBX 6 7 0 0
BITMAP
78
C0
78
08
04
0C
F8
ENDCHAR
STARTCHAR t
ENCODING 116
SWIDTH 333 0
DWIDTH 4 0
BBX 4 9 0 0
BITMAP
40
40
F0
40
40
40
40
40
30
ENDCHAR
STARTCHAR u
ENCODING 117
SWIDTH 556 0
DWIDTH 7 0
BBX 5 7 1 0
BITMAP
88
88
88
88
88
98
78
ENDCHAR
STARTCHAR v
ENCODING 118
SWIDTH 500 0
DWIDTH 6 0
BBX 6 7 0 0
BITMAP
84
84
48
48
48
30
30
ENDCHAR
STARTCHAR w
ENCODING 119
SWIDTH 722 0
DWIDTH 9 0
BBX 8 7 0 0
BITMAP
89
89
89
59
55
56
22
ENDCHAR
STARTCHAR x
ENCODING 120
SWIDTH 500 0
DWIDTH 6 0
BBX 6 7 0 0
BITMAP
48
48
48
30
78
48
84
ENDCHAR
STARTCHAR y
ENCODING 121
SWIDTH 500 0
DWIDTH 6 0
BBX 6 10 0 -3
BITMAP
84
84
4C
48
48
38
30
20
20
40
ENDCHAR
STARTCHAR z
ENCODING 122
SWIDTH 444 0
DWIDTH 5 0
BBX 5 7 0 0
BITMAP
78
08
10
20
40
C0
F8
ENDCHAR
STARTCHAR braceleft
ENCODING 123
SWIDTH 389 0
DWIDTH 5 0
BBX 3 12 1 -3
BITMAP
60
40
40
40
80
80
80
40
40
40
40
60
ENDCHAR
STARTCHAR bar
ENCODING 124
SWIDTH 222 0
DWIDTH 3 0
BBX 1 12 1 -3
BITMAP
80
80
80
80
80
80
80
80
80
80
80
80
ENDCHAR
STARTCHAR braceright
ENCODING 125
SWIDTH 389 0
DWIDTH 5 0
BBX 3 12 1 -3
BITMAP
C0
40
40
40
40
20
40
40
40
40
40
C0
ENDCHAR
STARTCHAR asciitilde
ENCODING 126
SWIDTH 600 0
DWIDTH 7 0
BBX 5 2 1 2
BITMAP
E0
18
ENDCHAR
STARTCHAR uni00A0
ENCODING 160
SWIDTH 305 0
DWIDTH 4 0
BBX 1 1 0 0
BITMAP
00
ENDCHAR
STARTCHAR exclamdown
ENCODING 161
SWIDTH 278 0
DWIDTH 3 0
BBX 1 9 1 -3
BITMAP
80
00
80
80
80
80
80
80
80
ENDCHAR
STARTCHAR cent
ENCODING 162
SWIDTH 611 0
DWIDTH 7 0
BBX 5 8 1 0
BITMAP
20
78
A0
A0
E0
78
20
20
ENDCHAR
STARTCHAR sterling
ENCODING 163
SWIDTH 611 0
DWIDTH 7 0
BBX 7 9 0 0
BITMAP
1E
30
20
7C
20
20
20
20
FC
ENDCHAR
STARTCHAR currency
ENCODING 164
SWIDTH 611 0
DWIDTH 7 0
BBX 6 6 1 1
BITMAP
F4
88
84
84
88
F4
ENDCHAR
STARTCHAR yen
ENCODING 165
SWIDTH 611 0
DWIDTH 7 0
BBX 6 9 1 0
BITMAP
84
88
88
DC
30
F8
20
20
20
ENDCHAR
STARTCHAR brokenbar
ENCODING 166
SWIDTH 222 0
DWIDTH 3 0
BBX 1 10 1 -2
BITMAP
80
80
80
80
00
00
80
80
80
80
ENDCHAR
STARTCHAR section
ENCODING 167
SWIDTH 500 0
DWIDTH 6 0
BBX 6 9 0 0
BITMAP
78
40
60
98
6C
38
08
08
F8
ENDCHAR
STARTCHAR dieresis
ENCODING 168
SWIDTH 222 0
DWIDTH 3 0
BBX 4 1 -1 8
BITMAP
D0
ENDCHAR
STARTCHAR copyright
ENCODING 169
SWIDTH 800 0
DWIDTH 10 0
BBX 8 9 1 0
BITMAP
3C
42
BA
A5
C1
A5
B9
42
3C
ENDCHAR
STARTCHAR ordfeminine
ENCODING 170
SWIDTH 300 0
DWIDTH 4 0
BBX 3 5 0 4
BITMAP
E0
20
E0
A0
E0
ENDCHAR
STARTCHAR guillemotleft
ENCODING 171
SWIDTH 444 0
DWIDTH 5 0
BBX 3 4 1 1
BITMAP
A0
A0
A0
A0
ENDCHAR
STARTCHAR logicalnot
ENCODING 172
SWIDTH 600 0
DWIDTH 7 0
BBX 6 3 1 2
BITMAP
FC
04
04
ENDCHAR
STARTCHAR uni00AD
ENCODING 173
SWIDTH 333 0
DWIDTH 4 0
BBX 2 1 1 3
BITMAP
C0
ENDCHAR
STARTCHAR registered
ENCODING 174
SWIDTH 800 0
DWIDTH 10 0
BBX 8 9 1 0
BITMAP
3C
42
BD
A5
B9
A9
A5
42
3C
ENDCHAR
STARTCHAR macron
ENCODING 175
SWIDTH 222 0
DWIDTH 3 0
BBX 3 1 0 7
BITMAP
E0
ENDCHAR
STARTCHAR degree
ENCODING 176
SWIDTH 400 0
DWIDTH 5 0
BBX 3 4 1 5
BITMAP
E0
A0
A0
40
ENDCHAR
STARTCHAR plusminus
ENCODING 177
SWIDTH 600 0
DWIDTH 7 0
BBX 6 7 1 0
BITMAP
20
20
FC
20
20
00
FC
ENDCHAR
STARTCHAR twosuperior
ENCODING 178
SWIDTH 366 0
DWIDTH 4 0
BBX 4 6 0 3
BITMAP
F0
10
30
40
80
F0
ENDCHAR
STARTCHAR threesuperior
ENCODING 179
SWIDTH 366 0
DWIDTH 4 0
BBX 4 6 0 3
BITMAP
E0
40
60
10
10
E0
ENDCHAR
STARTCHAR acute
ENCODING 180
SWIDTH 222 0
DWIDTH 3 0
BBX 3 2 0 7
BITMAP
20
C0
ENDCHAR
STARTCHAR mu
ENCODING 181
SWIDTH 556 0
DWIDTH 7 0
BBX 5 10 1 -3
BITMAP
88
88
88
88
88
98
F8
80
80
80
ENDCHAR
STARTCHAR paragraph
ENCODING 182
SWIDTH 600 0
DWIDTH 7 0
BBX 5 9 1 0
BITMAP
F8
E8
E8
E8
68
28
28
28
28
ENDCHAR
STARTCHAR periodcentered
ENCODING 183
SWIDTH 305 0
DWIDTH 4 0
BBX 1 1 1 3
BITMAP
80
ENDCHAR
STARTCHAR cedilla
ENCODING 184
SWIDTH 222 0
DWIDTH 3 0
BBX 3 3 0 -3
BITMAP
40
20
E0
ENDCHAR
STARTCHAR onesuperior
ENCODING 185
SWIDTH 366 0
DWIDTH 4 0
BBX 2 6 1 3
BITMAP
C0
40
40
40
40
C0
ENDCHAR
STARTCHAR ordmasculine
ENCODING 186
SWIDTH 334 0
DWIDTH 4 0
BBX 4 5 0 4
BITMAP
60
90
90
90
60
ENDCHAR
STARTCHAR guillemotright
ENCODING 187
SWIDTH 444 0
DWIDTH 5 0
BBX 4 5 1 1
BITMAP
A0
A0
50
A0
A0
ENDCHAR
STARTCHAR onequarter
ENCODING 188
SWIDTH 916 0
DWIDTH 11 0
BBX 9 9 1 0
BITMAP
C200
4200
4400
4400
4900
D300
1500
2780
4100
ENDCHAR
STARTCHAR onehalf
ENCODING 189
SWIDTH 916 0
DWIDTH 11 0
BBX 9 9 1 0
BITMAP
8200
8200
8400
8800
8B80
D080
2180
2200
4780
ENDCHAR
STARTCHAR threequarters
ENCODING 190
SWIDTH 916 0
DWIDTH 11 0
BBX 10 9 0 0
BITMAP
7080
2100
7100
1200
14C0
F540
0A40
13C0
1040
ENDCHAR
STARTCHAR questiondown
ENCODING 191
SWIDTH 500 0
DWIDTH 6 0
BBX 5 9 1 -3
BITMAP
20
00
20
20
60
80
80
80
F8
ENDCHAR
STARTCHAR Agrave
ENCODING 192
SWIDTH 667 0
DWIDTH 8 0
BBX 8 11 0 0
BITMAP
30
0C
18
18
24
24
7A
46
42
C2
83
ENDCHAR
STARTCHAR Aacute
ENCODING 193
SWIDTH 667 0
DWIDTH 8 0
BBX 8 11 0 0
BITMAP
0C
30
18
18
24
24
7A
46
42
C2
83
ENDCHAR
STARTCHAR Acircumflex
ENCODING 194
SWIDTH 667 0
DWIDTH 8 0
BBX 8 12 0 0
BITMAP
18
3C
00
18
18
24
24
7A
46
42
C2
83
ENDCHAR
STARTCHAR Atilde
ENCODING 195
SWIDTH 667 0
DWIDTH 8 0
BBX 8 11 0 0
BITMAP
3C
00
18
18
24
24
7A
46
42
C2
83
ENDCHAR
STARTCHAR Adieresis
ENCODING 196
SWIDTH 667 0
DWIDTH 8 0
BBX 8 11 0 0
BITMAP
24
00
18
18
24
24
7A
46
42
C2
83
ENDCHAR
STARTCHAR Aring
ENCODING 197
SWIDTH 667 0
DWIDTH 8 0
BBX 8 11 0 0
BITMAP
38
10
18
18
24
24
7A
46
42
C2
83
ENDCHAR
STARTCHAR AE
ENCODING 198
SWIDTH 944 0
DWIDTH 11 0
BBX 11 9 0 0
BITMAP
07E0
0A00
13E0
2E00
3200
6200
4200
8200
83E0
ENDCHAR
STARTCHAR Ccedilla
ENCODING 199
SWIDTH 611 0
DWIDTH 7 0
BBX 7 12 0 -3
BITMAP
3E
40
40
C0
40
40
60
30
1E
08
04
1C
ENDCHAR
STARTCHAR Egrave
ENCODING 200
SWIDTH 556 0
DWIDTH 7 0
BBX 5 11 1 0
BITMAP
60
10
F8
80
F8
80
80
80
80
80
F8
ENDCHAR
STARTCHAR Eacute
ENCODING 201
SWIDTH 556 0
DWIDTH 7 0
BBX 5 11 1 0
BITMAP
30
40
F8
80
F8
80
80
80
80
80
F8
ENDCHAR
STARTCHAR Ecircumflex
ENCODING 202
SWIDTH 556 0
DWIDTH 7 0
BBX 5 12 1 0
BITMAP
20
50
00
F8
80
F8
80
80
80
80
80
F8
ENDCHAR
STARTCHAR Edieresis
ENCODING 203
SWIDTH 556 0
DWIDTH 7 0
BBX 5 11 1 0
BITMAP
D0
00
F8
80
F8
80
80
80
80
80
F8
ENDCHAR
STARTCHAR Igrave
ENCODING 204
SWIDTH 222 0
DWIDTH 3 0
BBX 3 11 0 0
BITMAP
C0
20
40
40
40
40
40
40
40
40
40
ENDCHAR
STARTCHAR Iacute
ENCODING 205
SWIDTH 222 0
DWIDTH 3 0
BBX 3 11 0 0
BITMAP
60
80
40
40
40
40
40
40
40
40
40
ENDCHAR
STARTCHAR Icircumflex
ENCODING 206
SWIDTH 222 0
DWIDTH 3 0
BBX 3 12 0 0
BITMAP
40
A0
00
40
40
40
40
40
40
40
40
40
ENDCHAR
STARTCHAR Idieresis
ENCODING 207
SWIDTH 222 0
DWIDTH 3 0
BBX 4 11 -1 0
BITMAP
D0
00
20
20
20
20
20
20
20
20
20
ENDCHAR
STARTCHAR Eth
ENCODING 208
SWIDTH 667 0
DWIDTH 8 0
BBX 7 9 0 0
BITMAP
70
4C
46
42
F2
42
42
42
7C
ENDCHAR
STARTCHAR Ntilde
ENCODING 209
SWIDTH 611 0
DWIDTH 7 0
BBX 5 11 1 0
BITMAP
70
00
88
C8
A8
98
88
88
88
88
88
ENDCHAR
STARTCHAR Ograve
ENCODING 210
SWIDTH 722 0
DWIDTH 9 0
BBX 8 11 0 0
BITMAP
18
04
1C
62
41
41
C1
41
41
62
3C
ENDCHAR
STARTCHAR Oacute
ENCODING 211
SWIDTH 722 0
DWIDTH 9 0
BBX 8 11 0 0
BITMAP
0C
10
1C
62
41
41
C1
41
41
62
3C
ENDCHAR
STARTCHAR Ocircumflex
ENCODING 212
SWIDTH 722 0
DWIDTH 9 0
BBX 8 12 0 0
BITMAP
08
14
00
1C
62
41
41
C1
41
41
62
3C
ENDCHAR
STARTCHAR Otilde
ENCODING 213
SWIDTH 722 0
DWIDTH 9 0
BBX 8 11 0 0
BITMAP
1C
20
1C
62
41
41
C1
41
41
62
3C
ENDCHAR
STARTCHAR Odieresis
ENCODING 214
SWIDTH 722 0
DWIDTH 9 0
BBX 8 11 0 0
BITMAP
34
00
1C
62
41
41
C1
41
41
62
3C
ENDCHAR
STARTCHAR multiply
ENCODING 215
SWIDTH 600 0
DWIDTH 7 0
BBX 5 7 1 0
BITMAP
88
C8
50
20
50
C8
88
ENDCHAR
STARTCHAR Oslash
ENCODING 216
SWIDTH 722 0
DWIDTH 9 0
BBX 8 11 0 -1
BITMAP
02
1C
66
45
49
C9
51
51
62
3C
40
ENDCHAR
STARTCHAR Ugrave
ENCODING 217
SWIDTH 611 0
DWIDTH 7 0
BBX 7 11 0 0
BITMAP
30
08
44
44
44
42
42
82
C2
46
3C
ENDCHAR
STARTCHAR Uacute
ENCODING 218
SWIDTH 611 0
DWIDTH 7 0
BBX 7 11 0 0
BITMAP
18
20
44
44
44
42
42
82
C2
46
3C
ENDCHAR
STARTCHAR Ucircumflex
ENCODING 219
SWIDTH 611 0
DWIDTH 7 0
BBX 7 12 0 0
BITMAP
10
28
00
44
44
44
42
42
82
C2
46
3C
ENDCHAR
STARTCHAR Udieresis
ENCODING 220
SWIDTH 611 0
DWIDTH 7 0
BBX 7 11 0 0
BITMAP
2C
00
44
44
44
42
42
82
C2
46
3C
ENDCHAR
STARTCHAR Yacute
ENCODING 221
SWIDTH 556 0
DWIDTH 7 0
BBX 6 11 0 0
BITMAP
18
20
84
44
4C
28
30
10
10
10
10
ENDCHAR
STARTCHAR Thorn
ENCODING 222
SWIDTH 556 0
DWIDTH 7 0
BBX 6 9 1 0
BITMAP
80
80
F8
8C
88
F0
80
80
80
ENDCHAR
STARTCHAR germandbls
ENCODING 223
SWIDTH 556 0
DWIDTH 7 0
BBX 6 9 0 0
BITMAP
78
48
D0
60
58
44
44
44
7C
ENDCHAR
STARTCHAR agrave
ENCODING 224
SWIDTH 500 0
DWIDTH 6 0
BBX 5 9 0 0
BITMAP
70
00
78
08
38
48
88
88
78
ENDCHAR
STARTCHAR aacute
ENCODING 225
SWIDTH 500 0
DWIDTH 6 0
BBX 5 9 0 0
BITMAP
30
00
78
08
38
48
88
88
78
ENDCHAR
STARTCHAR acircumflex
ENCODING 226
SWIDTH 500 0
DWIDTH 6 0
BBX 5 10 0 0
BITMAP
30
50
00
78
08
38
48
88
88
78
ENDCHAR
STARTCHAR atilde
ENCODING 227
SWIDTH 500 0
DWIDTH 6 0
BBX 5 9 0 0
BITMAP
78
00
78
08
38
48
88
88
78
ENDCHAR
STARTCHAR adieresis
ENCODING 228
SWIDTH 500 0
DWIDTH 6 0
BBX 5 9 0 0
BITMAP
48
00
78
08
38
48
88
88
78
ENDCHAR
STARTCHAR aring
ENCODING 229
SWIDTH 500 0
DWIDTH 6 0
BBX 5 10 0 0
BITMAP
30
30
00
78
08
38
48
88
88
78
ENDCHAR
STARTCHAR ae
ENCODING 230
SWIDTH 833 0
DWIDTH 10 0
BBX 10 7 0 0
BITMAP
7F80
0C80
3F80
4800
8800
8C00
7FC0
ENDCHAR
STARTCHAR ccedilla
ENCODING 231
SWIDTH 500 0
DWIDTH 6 0
BBX 6 10 0 -3
BITMAP
7C
40
C0
C0
40
60
3C
10
08
38
ENDCHAR
STARTCHAR egrave
ENCODING 232
SWIDTH 556 0
DWIDTH 7 0
BBX 6 9 0 0
BITMAP
38
00
38
44
44
FC
40
40
3C
ENDCHAR
STARTCHAR eacute
ENCODING 233
SWIDTH 556 0
DWIDTH 7 0
BBX 6 9 0 0
BITMAP
38
00
38
44
44
FC
40
40
3C
ENDCHAR
STARTCHAR ecircumflex
ENCODING 234
SWIDTH 556 0
DWIDTH 7 0
BBX 6 10 0 0
BITMAP
10
28
00
38
44
44
FC
40
40
3C
ENDCHAR
STARTCHAR edieresis
ENCODING 235
SWIDTH 556 0
DWIDTH 7 0
BBX 6 9 0 0
BITMAP
68
00
38
44
44
FC
40
40
3C
ENDCHAR
STARTCHAR igrave
ENCODING 236
SWIDTH 222 0
DWIDTH 3 0
BBX 3 9 0 0
BITMAP
E0
00
40
40
40
40
40
40
40
ENDCHAR
STARTCHAR iacute
ENCODING 237
SWIDTH 222 0
DWIDTH 3 0
BBX 3 9 0 0
BITMAP
E0
00
40
40
40
40
40
40
40
ENDCHAR
STARTCHAR icircumflex
ENCODING 238
SWIDTH 222 0
DWIDTH 3 0
BBX 3 10 0 0
BITMAP
40
A0
00
40
40
40
40
40
40
40
ENDCHAR
STARTCHAR idieresis
ENCODING 239
SWIDTH 222 0
DWIDTH 3 0
BBX 4 9 -1 0
BITMAP
D0
00
20
20
20
20
20
20
20
ENDCHAR
STARTCHAR eth
ENCODING 240
SWIDTH 556 0
DWIDTH 7 0
BBX 5 9 1 0
BITMAP
D0
20
50
68
98
88
88
88
70
ENDCHAR
STARTCHAR ntilde
ENCODING 241
SWIDTH 556 0
DWIDTH 7 0
BBX 5 9 1 0
BITMAP
70
00
F0
88
88
88
88
88
88
ENDCHAR
STARTCHAR ograve
ENCODING 242
SWIDTH 556 0
DWIDTH 7 0
BBX 6 9 0 0
BITMAP
30
00
38
4C
44
84
44
44
38
ENDCHAR
STARTCHAR oacute
ENCODING 243
SWIDTH 556 0
DWIDTH 7 0
BBX 6 9 0 0
BITMAP
38
00
38
4C
44
84
44
44
38
ENDCHAR
STARTCHAR ocircumflex
ENCODING 244
SWIDTH 556 0
DWIDTH 7 0
BBX 6 10 0 0
BITMAP
10
28
00
38
4C
44
84
44
44
38
ENDCHAR
STARTCHAR otilde
ENCODING 245
SWIDTH 556 0
DWIDTH 7 0
BBX 6 9 0 0
BITMAP
38
00
38
4C
44
84
44
44
38
ENDCHAR
STARTCHAR odieresis
ENCODING 246
SWIDTH 556 0
DWIDTH 7 0
BBX 6 9 0 0
BITMAP
68
00
38
4C
44
84
44
44
38
ENDCHAR
STARTCHAR divide
ENCODING 247
SWIDTH 600 0
DWIDTH 7 0
BBX 6 7 1 0
BITMAP
20
20
00
FC
00
20
20
ENDCHAR
STARTCHAR oslash
ENCODING 248
SWIDTH 556 0
DWIDTH 7 0
BBX 6 9 0 -1
BITMAP
08
38
4C
54
94
64
64
38
40
ENDCHAR
STARTCHAR ugrave
ENCODING 249
SWIDTH 556 0
DWIDTH 7 0
BBX 5 9 1 0
BITMAP
70
00
88
88
88
88
88
98
78
ENDCHAR
STARTCHAR uacute
ENCODING 250
SWIDTH 556 0
DWIDTH 7 0
BBX 5 9 1 0
BITMAP
70
00
88
88
88
88
88
98
78
ENDCHAR
STARTCHAR ucircumflex
ENCODING 251
SWIDTH 556 0
DWIDTH 7 0
BBX 5 10 1 0
BITMAP
20
50
00
88
88
88
88
88
98
78
ENDCHAR
STARTCHAR udieresis
ENCODING 252
SWIDTH 556 0
DWIDTH 7 0
BBX 5 9 1 0
BITMAP
D0
00
88
88
88
88
88
98
78
ENDCHAR
STARTCHAR yacute
ENCODING 253
SWIDTH 500 0
DWIDTH 6 0
BBX 6 12 0 -3
BITMAP
30
00
84
84
4C
48
48
38
30
20
20
40
ENDCHAR
STARTCHAR thorn
ENCODING 254
SWIDTH 556 0
DWIDTH 7 0
BBX 5 12 1 -3
BITMAP
80
80
E0
90
88
88
88
88
F0
80
80
80
ENDCHAR
STARTCHAR ydieresis
ENCODING 255
SWIDTH 500 0
DWIDTH 6 0
BBX 6 12 0 -3
BITMAP
48
00
84
84
4C
48
48
38
30
20
20
40
ENDCHAR
STARTCHAR .notdef
ENCODING -1
SWIDTH 500 0
DWIDTH 6 0
BBX 6 9 0 0
BITMAP
FC
84
CC
B4
A4
B4
CC
CC
FC
ENDCHAR
STARTCHAR quoteright
ENCODING -1
SWIDTH 222 0
DWIDTH 3 0
BBX 2 3 0 6
BITMAP
40
40
80
ENDCHAR
STARTCHAR quoteleft
ENCODING -1
SWIDTH 222 0
DWIDTH 3 0
BBX 2 3 0 6
BITMAP
80
40
40
ENDCHAR
STARTCHAR fraction
ENCODING -1
SWIDTH 167 0
DWIDTH 2 0
BBX 6 9 -2 0
BITMAP
04
08
08
10
20
20
40
40
80
ENDCHAR
STARTCHAR florin
ENCODING -1
SWIDTH 611 0
DWIDTH 7 0
BBX 7 12 0 -3
BITMAP
0E
08
08
18
3C
10
10
10
10
10
20
E0
ENDCHAR
STARTCHAR quotedblleft
ENCODING -1
SWIDTH 389 0
DWIDTH 5 0
BBX 4 3 0 6
BITMAP
A0
50
50
ENDCHAR
STARTCHAR guilsinglleft
ENCODING -1
SWIDTH 278 0
DWIDTH 3 0
BBX 2 4 1 1
BITMAP
80
80
80
40
ENDCHAR
STARTCHAR guilsinglright
ENCODING -1
SWIDTH 278 0
DWIDTH 3 0
BBX 2 4 1 1
BITMAP
80
C0
80
80
ENDCHAR
STARTCHAR fi
ENCODING -1
SWIDTH 500 0
DWIDTH 6 0
BBX 5 9 0 0
BITMAP
78
48
F8
48
48
48
48
48
48
ENDCHAR
STARTCHAR fl
ENCODING -1
SWIDTH 500 0
DWIDTH 6 0
BBX 5 9 0 0
BITMAP
78
48
F8
48
48
48
48
48
48
ENDCHAR
STARTCHAR endash
ENCODING -1
SWIDTH 500 0
DWIDTH 6 0
BBX 6 1 0 3
BITMAP
FC
ENDCHAR
STARTCHAR dagger
ENCODING -1
SWIDTH 389 0
DWIDTH 5 0
BBX 4 9 0 0
BITMAP
20
20
F0
20
20
20
20
20
20
ENDCHAR
STARTCHAR daggerdbl
ENCODING -1
SWIDTH 389 0
DWIDTH 5 0
BBX 4 9 0 0
BITMAP
20
20
F0
20
20
20
F0
20
20
ENDCHAR
STARTCHAR bullet
ENCODING -1
SWIDTH 500 0
DWIDTH 6 0
BBX 4 4 1 2
BITMAP
60
F0
F0
60
ENDCHAR
STARTCHAR quotesinglbase
ENCODING -1
SWIDTH 222 0
DWIDTH 3 0
BBX 2 3 0 -1
BITMAP
40
40
80
ENDCHAR
STARTCHAR quotedblbase
ENCODING -1
SWIDTH 389 0
DWIDTH 5 0
BBX 4 3 0 -1
BITMAP
50
50
A0
ENDCHAR
STARTCHAR quotedblright
ENCODING -1
SWIDTH 389 0
DWIDTH 5 0
BBX 4 3 0 6
BITMAP
50
50
A0
ENDCHAR
STARTCHAR ellipsis
ENCODING -1
SWIDTH 1000 0
DWIDTH 12 0
BBX 10 1 1 0
BITMAP
CCC0
ENDCHAR
STARTCHAR perthousand
ENCODING -1
SWIDTH 1000 0
DWIDTH 12 0
BBX 12 9 0 0
BITMAP
6400
9400
9800
6800
1000
1660
2990
2990
2660
ENDCHAR
STARTCHAR circumflex
ENCODING -1
SWIDTH 222 0
DWIDTH 3 0
BBX 3 2 0 7
BITMAP
40
A0
ENDCHAR
STARTCHAR tilde
ENCODING -1
SWIDTH 222 0
DWIDTH 3 0
BBX 3 1 0 7
BITMAP
E0
ENDCHAR
STARTCHAR breve
ENCODING -1
SWIDTH 222 0
DWIDTH 3 0
BBX 3 1 0 7
BITMAP
E0
ENDCHAR
STARTCHAR dotaccent
ENCODING -1
SWIDTH 222 0
DWIDTH 3 0
BBX 1 1 1 8
BITMAP
80
ENDCHAR
STARTCHAR ring
ENCODING -1
SWIDTH 222 0
DWIDTH 3 0
BBX 2 2 0 7
BITMAP
C0
C0
ENDCHAR
STARTCHAR hungarumlaut
ENCODING -1
SWIDTH 222 0
DWIDTH 3 0
BBX 5 3 -1 6
BITMAP
68
50
A0
ENDCHAR
STARTCHAR ogonek
ENCODING -1
SWIDTH 222 0
DWIDTH 3 0
BBX 2 3 0 -3
BITMAP
40
80
C0
ENDCHAR
STARTCHAR caron
ENCODING -1
SWIDTH 222 0
DWIDTH 3 0
BBX 3 2 0 7
BITMAP
A0
40
ENDCHAR
STARTCHAR emdash
ENCODING -1
SWIDTH 1000 0
DWIDTH 12 0
BBX 12 1 0 3
BITMAP
FFF0
ENDCHAR
STARTCHAR Lslash
ENCODING -1
SWIDTH 444 0
DWIDTH 5 0
BBX 5 9 0 0
BITMAP
40
40
40
70
C0
40
40
40
78
ENDCHAR
STARTCHAR OE
ENCODING -1
SWIDTH 1000 0
DWIDTH 12 0
BBX 12 9 0 0
BITMAP
3DF0
6700
43F0
C300
C100
C300
4300
6700
3DF0
ENDCHAR
STARTCHAR dotlessi
ENCODING -1
SWIDTH 222 0
DWIDTH 3 0
BBX 1 7 1 0
BITMAP
80
80
80
80
80
80
80
ENDCHAR
STARTCHAR lslash
ENCODING -1
SWIDTH 222 0
DWIDTH 3 0
BBX 3 9 0 0
BITMAP
40
40
40
60
C0
40
40
40
40
ENDCHAR
STARTCHAR oe
ENCODING -1
SWIDTH 944 0
DWIDTH 11 0
BBX 11 7 0 0
BITMAP
3BC0
4E40
4420
87E0
4400
4600
3BE0
ENDCHAR
STARTCHAR trademark
ENCODING -1
SWIDTH 990 0
DWIDTH 12 0
BBX 10 6 1 3
BITMAP
F440
46C0
46C0
46C0
4540
4540
ENDCHAR
STARTCHAR minus
ENCODING -1
SWIDTH 600 0
DWIDTH 7 0
BBX 6 1 1 3
BITMAP
FC
ENDCHAR
STARTCHAR Scaron
ENCODING -1
SWIDTH 611 0
DWIDTH 7 0
BBX 7 12 0 0
BITMAP
28
10
00
7C
C0
40
7C
06
02
02
04
FC
ENDCHAR
STARTCHAR Ydieresis
ENCODING -1
SWIDTH 556 0
DWIDTH 7 0
BBX 6 11 0 0
BITMAP
28
00
84
44
4C
28
30
10
10
10
10
ENDCHAR
STARTCHAR Zcaron
ENCODING -1
SWIDTH 500 0
DWIDTH 6 0
BBX 6 12 0 0
BITMAP
48
30
00
78
08
08
18
30
60
40
C0
FC
ENDCHAR
STARTCHAR scaron
ENCODING -1
SWIDTH 500 0
DWIDTH 6 0
BBX 6 10 0 0
BITMAP
48
30
00
78
C0
78
08
04
0C
F8
ENDCHAR
STARTCHAR zcaron
ENCODING -1
SWIDTH 444 0
DWIDTH 5 0
BBX 5 10 0 0
BITMAP
50
30
00
78
08
10
20
40
C0
F8
ENDCHAR
STARTCHAR Delta
ENCODING -1
SWIDTH 707 0
DWIDTH 8 0
BBX 8 9 0 0
BITMAP
18
18
14
24
22
42
42
41
FF
ENDCHAR
STARTCHAR Omega
ENCODING -1
SWIDTH 795 0
DWIDTH 10 0
BBX 8 8 1 0
BITMAP
3C
42
82
81
81
82
42
E7
ENDCHAR
STARTCHAR pi
ENCODING -1
SWIDTH 621 0
DWIDTH 7 0
BBX 7 6 0 0
BITMAP
FE
24
24
44
44
44
ENDCHAR
STARTCHAR Euro
ENCODING -1
SWIDTH 611 0
DWIDTH 7 0
BBX 6 9 1 0
BITMAP
3C
40
F8
40
F8
40
60
30
1C
ENDCHAR
STARTCHAR estimated
ENCODING -1
SWIDTH 844 0
DWIDTH 10 0
BBX 10 9 0 0
BITMAP
1E00
6100
4080
40C0
C0C0
FF00
4000
4080
3F00
ENDCHAR
STARTCHAR partialdiff
ENCODING -1
SWIDTH 592 0
DWIDTH 7 0
BBX 5 9 1 0
BITMAP
F0
08
08
68
98
88
88
88
70
ENDCHAR
STARTCHAR product
ENCODING -1
SWIDTH 758 0
DWIDTH 9 0
BBX 9 9 0 -1
BITMAP
FF80
2200
2200
2200
2200
2200
2200
2200
2200
ENDCHAR
STARTCHAR summation
ENCODING -1
SWIDTH 601 0
DWIDTH 7 0
BBX 7 9 0 -1
BITMAP
FE
40
20
10
08
10
20
40
FE
ENDCHAR
STARTCHAR uni2219
ENCODING -1
SWIDTH 305 0
DWIDTH 4 0
BBX 1 1 1 3
BITMAP
80
ENDCHAR
STARTCHAR radical
ENCODING -1
SWIDTH 612 0
DWIDTH 7 0
BBX 7 11 0 -2
BITMAP
02
02
02
04
04
C4
24
28
18
18
18
ENDCHAR
STARTCHAR infinity
ENCODING -1
SWIDTH 810 0
DWIDTH 10 0
BBX 8 4 1 1
BITMAP
E7
99
99
66
ENDCHAR
STARTCHAR integral
ENCODING -1
SWIDTH 373 0
DWIDTH 4 0
BBX 4 12 0 -2
BITMAP
30
20
20
20
20
20
20
20
20
20
20
C0
ENDCHAR
STARTCHAR approxequal
ENCODING -1
SWIDTH 605 0
DWIDTH 7 0
BBX 6 5 1 1
BITMAP
40
A8
10
E4
18
ENDCHAR
STARTCHAR notequal
ENCODING -1
SWIDTH 605 0
DWIDTH 7 0
BBX 6 5 1 1
BITMAP
10
FC
20
FC
40
ENDCHAR
STARTCHAR lessequal
ENCODING -1
SWIDTH 605 0
DWIDTH 7 0
BBX 6 7 1 0
BITMAP
08
30
C0
C0
30
0C
FC
ENDCHAR
STARTCHAR greaterequal
ENCODING -1
SWIDTH 605 0
DWIDTH 7 0
BBX 6 7 1 0
BITMAP
80
60
1C
18
60
80
FC
ENDCHAR
STARTCHAR lozenge
ENCODING -1
SWIDTH 613 0
DWIDTH 7 0
BBX 5 10 1 -1
BITMAP
20
50
50
88
88
88
88
50
50
20
ENDCHAR
STARTCHAR uni02C9
ENCODING -1
SWIDTH 222 0
DWIDTH 3 0
BBX 3 1 0 7
BITMAP
E0
ENDCHAR
STARTCHAR uni03A9
ENCODING -1
SWIDTH 795 0
DWIDTH 10 0
BBX 8 8 1 0
BITMAP
3C
42
82
81
81
82
42
E7
ENDCHAR
STARTCHAR afii61289
ENCODING -1
SWIDTH 528 0
DWIDTH 6 0
BBX 5 9 1 0
BITMAP
70
90
90
90
A0
C0
80
48
70
ENDCHAR
STARTCHAR uni03BC
ENCODING -1
SWIDTH 556 0
DWIDTH 7 0
BBX 5 10 1 -3
BITMAP
88
88
88
88
88
98
F8
80
80
80
ENDCHAR
STARTCHAR uni2215
ENCODING -1
SWIDTH 167 0
DWIDTH 2 0
BBX 6 9 -2 0
BITMAP
04
08
08
10
20
20
40
40
80
ENDCHAR
ENDFONT
